<?xml version="1.0" encoding="UTF-8" standalone="no"?>
<!-- Created with Inkscape (http://www.inkscape.org/) -->

<svg
   xmlns:dc="http://purl.org/dc/elements/1.1/"
   xmlns:cc="http://creativecommons.org/ns#"
   xmlns:rdf="http://www.w3.org/1999/02/22-rdf-syntax-ns#"
   xmlns:svg="http://www.w3.org/2000/svg"
   xmlns="http://www.w3.org/2000/svg"
   xmlns:sodipodi="http://sodipodi.sourceforge.net/DTD/sodipodi-0.dtd"
   xmlns:inkscape="http://www.inkscape.org/namespaces/inkscape"
   width="744.09448819"
   height="1052.3622047"
   id="svg2"
   version="1.1"
   inkscape:version="0.48.4 r9939"
   sodipodi:docname="book cover for Johns bookg.svg">
  <defs
     id="defs4" />
  <sodipodi:namedview
     id="base"
     pagecolor="#ffffff"
     bordercolor="#666666"
     borderopacity="1.0"
     inkscape:pageopacity="0.0"
     inkscape:pageshadow="2"
     inkscape:zoom="1.0769568"
     inkscape:cx="16.407497"
     inkscape:cy="1630.9853"
     inkscape:document-units="px"
     inkscape:current-layer="layer1"
     showgrid="false"
     inkscape:window-width="1366"
     inkscape:window-height="706"
     inkscape:window-x="-8"
     inkscape:window-y="-8"
     inkscape:window-maximized="1" />
  <metadata
     id="metadata7">
    <rdf:RDF>
      <cc:Work
         rdf:about="">
        <dc:format>image/svg+xml</dc:format>
        <dc:type
           rdf:resource="http://purl.org/dc/dcmitype/StillImage" />
        <dc:title></dc:title>
      </cc:Work>
    </rdf:RDF>
  </metadata>
  <g
     inkscape:label="Layer 1"
     inkscape:groupmode="layer"
     id="layer1">
    <g
       id="g3010"
       transform="matrix(0.8686425,-0.29850197,0.26304944,0.76547543,137.82935,-101.81901)">
      <path
         sodipodi:nodetypes="ccc"
         inkscape:connector-curvature="0"
         id="rect2993"
         d="m 486.04864,-718.76765 -42.02545,14.55088 -9.31873,-25.99785"
         style="fill:#e6e6e6;fill-opacity:1;fill-rule:nonzero" />
      <g
         transform="matrix(0.92366904,-0.38319122,0.38319122,0.92366904,228.58739,4.2211021)"
         id="g2989">
        <rect
           style="fill:#e6e6e6;fill-opacity:1;fill-rule:nonzero"
           id="rect2985"
           width="695.47821"
           height="26.927729"
           x="-222.85017"
           y="-598.58618" />
        <rect
           y="-571.65845"
           x="-222.85017"
           height="26.927729"
           width="695.47821"
           id="rect2987"
           style="fill:#cccccc;fill-opacity:1;fill-rule:nonzero" />
      </g>
      <path
         sodipodi:nodetypes="ccc"
         style="fill:#cccccc;fill-opacity:1;fill-rule:nonzero"
         d="m 488.36178,-719.19031 -44.01757,14.12811 11.58608,25.0697"
         id="path3004"
         inkscape:connector-curvature="0" />
    </g>
    <path
       sodipodi:type="star"
       style="fill:#ff0000;fill-opacity:1;fill-rule:nonzero"
       id="path3008"
       sodipodi:sides="5"
       sodipodi:cx="480.98495"
       sodipodi:cy="-524.3028"
       sodipodi:r1="35.394398"
       sodipodi:r2="12.61239"
       sodipodi:arg1="0.078783961"
       sodipodi:arg2="0.70710249"
       inkscape:flatsided="false"
       inkscape:rounded="3.67"
       inkscape:randomized="0"
       d="m 516.26956,-521.51717 c -7.58458,96.07143 36.90936,-67.8575 -25.69607,5.40781 -62.60543,73.26531 92.37884,3.7507 -1.33428,26.22503 -93.71312,22.47433 75.94194,14.13376 -13.08365,-22.76732 -89.02559,-36.90107 24.9795,89.01653 -25.3538,6.83501 -50.33331,-82.18153 10.02534,76.59265 17.60993,-19.47878 7.58458,-96.07143 -76.94066,51.26454 -14.33523,-22.00077 62.60542,-73.26531 -69.74594,33.2031 23.96719,10.72877 93.71312,-22.47434 -72.53145,-57.3333 16.49414,-20.43223 89.02559,36.90108 -53.13071,-56.072 -2.7974,26.10952 50.33331,82.18153 32.11376,-86.69847 24.52917,9.37296 z"
       inkscape:transform-center-x="2.6741244"
       inkscape:transform-center-y="-1.1042159"
       transform="translate(266.49166,126.28176)" />
    <g
       transform="matrix(-0.86018855,-0.32205415,-0.28380437,0.75802554,141.08109,-73.443246)"
       id="g3017">
      <path
         style="fill:#e6e6e6;fill-opacity:1;fill-rule:nonzero"
         d="m 486.04864,-718.76765 -42.02545,14.55088 -9.31873,-25.99785"
         id="path3019"
         inkscape:connector-curvature="0"
         sodipodi:nodetypes="ccc" />
      <g
         id="g3021"
         transform="matrix(0.92366904,-0.38319122,0.38319122,0.92366904,228.58739,4.2211021)">
        <rect
           y="-598.58618"
           x="-222.85017"
           height="26.927729"
           width="695.47821"
           id="rect3023"
           style="fill:#e6e6e6;fill-opacity:1;fill-rule:nonzero" />
        <rect
           style="fill:#cccccc;fill-opacity:1;fill-rule:nonzero"
           id="rect3025"
           width="695.47821"
           height="26.927729"
           x="-222.85017"
           y="-571.65845" />
      </g>
      <path
         inkscape:connector-curvature="0"
         id="path3027"
         d="m 488.36178,-719.19031 -44.01757,14.12811 11.58608,25.0697"
         style="fill:#cccccc;fill-opacity:1;fill-rule:nonzero"
         sodipodi:nodetypes="ccc" />
    </g>
    <flowRoot
       xml:space="preserve"
       id="flowRoot3043"
       style="fill:black;stroke:none;stroke-opacity:1;stroke-width:1px;stroke-linejoin:miter;stroke-linecap:butt;fill-opacity:1;font-family:Sans;font-style:normal;font-weight:normal;font-size:40px;line-height:125%;letter-spacing:0px;word-spacing:0px"><flowRegion
         id="flowRegion3045"><rect
           id="rect3047"
           width="1.8570848"
           height="51.998371"
           x="-244.20665"
           y="-644.08472" /></flowRegion><flowPara
         id="flowPara3049"></flowPara></flowRoot>    <rect
       style="fill:#ffffff;fill-opacity:1;fill-rule:nonzero"
       id="rect3055"
       width="106.78237"
       height="51.069832"
       x="775.70862"
       y="-39.028873"
       transform="matrix(0.78891975,-0.61449624,0.61449624,0.78891975,0,0)" />
    <g
       id="g3854"
       transform="matrix(1.102024,0,1.0630273,1,745.84176,-14.856678)"
       inkscape:transform-center-x="24.999558"
       inkscape:transform-center-y="-48.284204">
      <path
         inkscape:connector-curvature="0"
         id="path3852"
         d="m -130.91181,-689.26749 c 1.08811,0.30547 2.37591,0.61492 4.54896,0.92668 1.95396,0.27879 3.20427,0.56881 3.71612,0.82915 0.73399,0.381 1.11798,0.96891 1.20113,1.75881 0.0927,0.88056 -0.20909,1.68965 -0.91721,2.42536 -0.70814,0.73571 -1.85941,1.1841 -3.46511,1.35309 -1.59278,0.16763 -2.86322,-0.0709 -3.82792,-0.71561 -0.96472,-0.64475 -1.64227,-1.65303 -1.98234,-3.01818 l -3.39922,0.91054 c 0.6188,2.14755 1.70365,3.68955 3.22586,4.65532 1.52219,0.96577 3.62877,1.31643 6.30929,1.03432 1.61865,-0.17035 3.04009,-0.61774 4.26281,-1.31596 1.22269,-0.69821 2.12053,-1.58084 2.69204,-2.68186 0.57148,-1.10101 0.78948,-2.24606 0.66684,-3.4115 -0.1254,-1.19132 -0.52533,-2.15025 -1.16663,-2.89452 -0.39575,-0.45925 -0.99233,-0.67055 -1.533,-0.96749 l -10.33162,1.11185 z"
         style="font-size:40px;font-style:normal;font-weight:normal;line-height:125%;letter-spacing:0px;word-spacing:0px;fill:#a5a5a5;fill-opacity:1;stroke:none;font-family:Sans" />
      <path
         inkscape:connector-curvature="0"
         id="path3850"
         d="m -144.43883,-687.78408 0.43899,4.06162 c 0.22077,2.09779 0.49268,3.44316 0.84639,4.06711 0.35371,0.62396 0.90767,1.08946 1.64918,1.41729 0.7415,0.32784 1.74955,0.43077 3.01859,0.29721 0.77695,-0.0818 1.66795,-0.28177 2.63029,-0.59253 l -0.85563,-3.02695 c -0.62499,0.15743 -1.10876,0.24813 -1.49722,0.28901 -0.51798,0.0545 -0.927,0.01 -1.22312,-0.12916 -0.29613,-0.13903 -0.53641,-0.32941 -0.68941,-0.60135 -0.153,-0.27193 -0.29125,-0.90665 -0.39618,-1.90376 l -0.43174,-4.24369 -3.49014,0.3652 z"
         style="font-size:40px;font-style:normal;font-weight:normal;line-height:125%;letter-spacing:0px;word-spacing:0px;fill:#a5a5a5;fill-opacity:1;stroke:none;font-family:Sans" />
      <path
         inkscape:connector-curvature="0"
         id="path3848"
         d="m -165.99354,-685.39745 c 0.3952,3.29629 1.51332,5.78479 3.36858,7.40179 1.90997,1.66471 4.28291,2.33931 7.10587,2.04222 2.25317,-0.23714 4.07712,-1.10514 5.48353,-2.60825 1.40637,-1.50311 2.15105,-3.459 2.2772,-5.86825 l -3.46751,-0.0684 c -0.0621,1.77406 -0.51581,3.11105 -1.34661,4.04952 -0.83083,0.93847 -1.94294,1.49349 -3.31555,1.63795 -1.70932,0.1799 -3.15111,-0.32131 -4.34513,-1.46565 -1.13581,-1.08851 -1.82115,-2.95265 -2.14044,-5.51317 l -3.61994,0.3922 z"
         style="font-size:40px;font-style:normal;font-weight:normal;line-height:125%;letter-spacing:0px;word-spacing:0px;fill:#a5a5a5;fill-opacity:1;stroke:none;font-family:Sans" />
      <path
         inkscape:connector-curvature="0"
         id="path3846"
         d="m -190.39752,-682.71127 -2.76308,10.25777 4.01835,-0.42998 2.20125,-8.94461 11.92526,-1.26293 4.22468,8.26187 4.28696,-0.44074 -5.11856,-9.52036 -18.77486,2.07898 z"
         style="font-size:40px;font-style:normal;font-weight:normal;line-height:125%;letter-spacing:0px;word-spacing:0px;fill:#a5a5a5;fill-opacity:1;stroke:none;font-family:Sans" />
      <path
         inkscape:connector-curvature="0"
         id="path3842"
         d="m -171.94792,-685.3771 -18.28992,2.02319 -0.15968,0.64264 18.77486,-2.07898 -0.32526,-0.58685 z"
         style="font-size:40px;font-style:normal;font-weight:normal;line-height:125%;letter-spacing:0px;word-spacing:0px;fill:#a5a5a5;fill-opacity:1;stroke:none;font-family:Sans" />
      <path
         inkscape:connector-curvature="0"
         id="path3838"
         d="m -162.43926,-686.43053 -3.61994,0.3922 c 0.0112,0.13217 -0.002,0.24738 0.0116,0.38128 0.0104,0.0987 0.0424,0.16236 0.054,0.2596 l 3.61994,-0.3922 c -0.0164,-0.1313 -0.0578,-0.21098 -0.072,-0.34614 -0.0118,-0.11195 0.0161,-0.18507 0.006,-0.29474 z"
         style="font-size:40px;font-style:normal;font-weight:normal;line-height:125%;letter-spacing:0px;word-spacing:0px;fill:#a5a5a5;fill-opacity:1;stroke:none;font-family:Sans" />
      <path
         inkscape:connector-curvature="0"
         id="path3834"
         d="m -141.01435,-688.79016 -3.48113,0.40846 0.0566,0.59762 3.49014,-0.3652 -0.0657,-0.64088 z"
         style="font-size:40px;font-style:normal;font-weight:normal;line-height:125%;letter-spacing:0px;word-spacing:0px;fill:#a5a5a5;fill-opacity:1;stroke:none;font-family:Sans" />
    </g>
    <g
       id="g3863"
       transform="matrix(0.9740638,-0.22627355,-0.09485804,1.0486622,0.81951104,104.44902)"
       inkscape:transform-center-x="50.422624"
       inkscape:transform-center-y="-44.59365">
      <g
         id="g3870"
         transform="matrix(0.92737801,-0.17400577,0.19291852,1.0421113,225.90036,88.944636)">
        <path
           style="font-size:40px;font-style:normal;font-weight:normal;line-height:125%;letter-spacing:0px;word-spacing:0px;fill:#a5a5a5;fill-opacity:1;stroke:none;font-family:Sans"
           d="m -171.94792,-685.3771 -9.20818,-17.13323 -4.04449,0.41285 -5.03725,18.74357 18.28992,-2.02319 z m -11.00348,-13.9383 c 0.60244,1.49466 1.49468,3.39967 2.65327,5.69987 l 3.78587,7.56322 -9.64747,1.03718 2.25528,-8.68501 c 0.47097,-1.86943 0.78262,-3.75122 0.95305,-5.61526 z"
           id="path3844"
           inkscape:connector-curvature="0" />
        <path
           style="font-size:40px;font-style:normal;font-weight:normal;line-height:125%;letter-spacing:0px;word-spacing:0px;fill:#a5a5a5;fill-opacity:1;stroke:none;font-family:Sans"
           d="m -162.43926,-686.43053 c -0.22645,-2.56715 0.0835,-4.55381 1.0117,-5.87574 0.9678,-1.37839 2.31173,-2.15189 4.07284,-2.33725 1.16543,-0.12263 2.21274,0.11717 3.10863,0.72987 0.89587,0.61275 1.56416,1.58828 2.03373,2.93978 l 3.33882,-0.8754 c -0.62086,-2.04258 -1.68132,-3.55947 -3.22498,-4.54265 -1.54368,-0.98313 -3.45432,-1.35286 -5.69454,-1.11711 -1.77406,0.18672 -3.3587,0.76804 -4.77939,1.76202 -1.42069,0.99402 -2.41308,2.39207 -2.97538,4.1402 -0.5285,1.64306 -0.68667,3.50218 -0.51137,5.56848 l 3.61994,-0.3922 z"
           id="path3840"
           inkscape:connector-curvature="0" />
        <path
           style="font-size:40px;font-style:normal;font-weight:normal;line-height:125%;letter-spacing:0px;word-spacing:0px;fill:#a5a5a5;fill-opacity:1;stroke:none;font-family:Sans"
           d="m -141.01435,-688.79016 -0.74927,-7.17949 3.50727,-0.39133 -0.28966,-2.69332 -3.51627,0.34806 -0.74928,-7.17948 -3.25714,2.4609 0.54241,5.10091 -2.56352,0.26264 0.27252,2.71946 2.56352,-0.26264 0.75829,7.22275 3.48113,-0.40846 z"
           id="path3836"
           inkscape:connector-curvature="0" />
        <path
           style="font-size:40px;font-style:normal;font-weight:normal;line-height:125%;letter-spacing:0px;word-spacing:0px;fill:#a5a5a5;fill-opacity:1;stroke:none;font-family:Sans"
           d="m -121.41654,-690.92754 c -0.0428,-0.0143 -0.0611,-0.055 -0.10454,-0.0685 -1.02197,-0.31795 -2.80472,-0.67635 -5.34753,-1.07648 -1.75838,-0.28627 -2.8049,-0.48935 -3.16815,-0.58206 -0.63452,-0.18197 -1.12932,-0.45787 -1.45372,-0.80343 -0.32304,-0.33258 -0.50729,-0.69521 -0.55499,-1.14845 -0.075,-0.7122 0.19474,-1.39676 0.82518,-1.99994 0.63043,-0.60312 1.76561,-0.98399 3.37133,-1.15301 1.35967,-0.14307 2.4474,0.0468 3.25469,0.56406 0.80726,0.51732 1.32864,1.30832 1.59579,2.35379 l 3.37397,-0.815 c -0.36053,-1.31059 -0.87414,-2.32988 -1.54066,-3.06495 -0.66655,-0.73503 -1.64368,-1.31272 -2.91644,-1.65012 -1.27279,-0.33736 -2.71684,-0.39661 -4.33549,-0.22628 -1.0748,0.11313 -2.07504,0.35677 -2.98456,0.73396 -0.90953,0.37724 -1.5862,0.78838 -2.08782,1.24703 -0.67065,0.59431 -1.20519,1.29917 -1.54358,2.12687 -0.33841,0.82774 -0.44887,1.72693 -0.35211,2.64632 0.10631,1.01006 0.45281,1.88866 1.05221,2.67005 0.49941,0.65105 1.25109,1.05846 2.05659,1.42279 l 10.85983,-1.17662 z"
           id="path3832"
           inkscape:connector-curvature="0" />
        <path
           style="font-size:40px;font-style:normal;font-weight:normal;line-height:125%;letter-spacing:0px;word-spacing:0px;fill:#a5a5a5;fill-opacity:1;stroke:none;font-family:Sans"
           d="m -121.41654,-690.92754 -10.85983,1.17662 c 0.1613,0.0729 0.22748,0.23878 0.40104,0.30024 0.18145,0.0643 0.73366,0.11865 0.96352,0.18319 l 10.33162,-1.11185 c -0.29825,-0.16379 -0.494,-0.43379 -0.83635,-0.5482 z"
           id="text3051"
           inkscape:connector-curvature="0" />
      </g>
    </g>
    <rect
       style="fill:#a5a5a5;fill-opacity:1;fill-rule:nonzero"
       id="rect3826"
       width="175.87953"
       height="36.252686"
       x="-316.78094"
       y="-572.18225"
       transform="matrix(0.99985571,-0.01698718,0.1185393,0.99294936,0,0)" />
  </g>
</svg>
